<?xml version="1.0" encoding="utf-8"?>
<!-- Generator: Adobe Illustrator 19.0.0, SVG Export Plug-In . SVG Version: 6.00 Build 0)  -->
<svg version="1.1" id="Layer_1" xmlns="http://www.w3.org/2000/svg" xmlns:xlink="http://www.w3.org/1999/xlink" x="0px" y="0px"
	 viewBox="-703 285 512 512" style="enable-background:new -703 285 512 512;" xml:space="preserve">
<style type="text/css">
	.st0{fill:#FFFFFF;}
</style>
<g>
	<g>
		<path class="st0" d="M-199,289.3h-496c-4.4,0-8,3.6-8,8v102.6v384.8c0,4.4,3.6,8,8,8h496c4.4,0,8-3.6,8-8V399.9V297.3
			C-191,292.9-194.6,289.3-199,289.3z M-207,776.7H-687V407.9H-207L-207,776.7L-207,776.7z M-207,391.9H-687v-86.6H-207L-207,391.9
			L-207,391.9z"/>
	</g>
</g>
<g>
	<g>
		<path class="st0" d="M-276,323.5H-370c-4.4,0-8,3.6-8,8c0,4.4,3.6,8,8,8h94.1c4.4,0,8-3.6,8-8C-268,327.1-271.5,323.5-276,323.5z"
			/>
	</g>
</g>
<g>
	<g>
		<path class="st0" d="M-233.2,323.5h-17.1c-4.4,0-8,3.6-8,8c0,4.4,3.6,8,8,8h17.1c4.4,0,8-3.6,8-8
			C-225.2,327.1-228.8,323.5-233.2,323.5z"/>
	</g>
</g>
<g>
	<g>
		<path class="st0" d="M-438.4,314.9c-18.6,0-33.7,15.1-33.7,33.7s15.1,33.7,33.7,33.7s33.7-15.1,33.7-33.7
			S-419.9,314.9-438.4,314.9z M-438.4,366.2c-9.7,0-17.6-7.9-17.6-17.6s7.9-17.6,17.6-17.6s17.6,7.9,17.6,17.6
			S-428.7,366.2-438.4,366.2z"/>
	</g>
</g>
<g>
	<g>
		<path class="st0" d="M-532.5,314.9c-18.6,0-33.7,15.1-33.7,33.7s15.1,33.7,33.7,33.7s33.7-15.1,33.7-33.7
			S-513.9,314.9-532.5,314.9z M-532.5,366.2c-9.7,0-17.6-7.9-17.6-17.6s7.9-17.6,17.6-17.6s17.6,7.9,17.6,17.6
			S-522.8,366.2-532.5,366.2z"/>
	</g>
</g>
<g>
	<g>
		<path class="st0" d="M-626.6,314.9c-18.6,0-33.7,15.1-33.7,33.7s15.1,33.7,33.7,33.7c18.6,0,33.7-15.1,33.7-33.7
			S-608,314.9-626.6,314.9z M-626.6,366.2c-9.7,0-17.6-7.9-17.6-17.6s7.9-17.6,17.6-17.6c9.7,0,17.6,7.9,17.6,17.6
			S-616.8,366.2-626.6,366.2z"/>
	</g>
</g>
<g>
	<g>
		<path class="st0" d="M-534.1,517.1c0.2-6.4-2.2-12.5-6.6-17.2s-10.4-7.3-16.8-7.5c-6.4-0.2-12.5,2.2-17.2,6.6l-81.2,77
			c-4.9,4.6-7.6,11.1-7.5,17.8c0.1,6.7,3,13.1,8,17.6l81.2,72.7c4.4,4,10.1,6.1,16,6.1c0,0,0,0,0,0c6.8,0,13.4-2.9,17.9-8
			c8.8-9.9,8-25.1-1.9-34l-61.8-55.3l62.3-59C-537,529.5-534.3,523.5-534.1,517.1z M-552.7,522.2l-68.6,65c-1.6,1.5-2.5,3.7-2.5,5.9
			c0,2.2,1,4.4,2.7,5.9l68.3,61.1c3.3,2.9,3.6,8,0.6,11.3c-1.5,1.7-3.7,2.7-6,2.7c-2,0-3.9-0.7-5.3-2l-81.2-72.7
			c-1.7-1.5-2.6-3.6-2.7-5.9c0-2.2,0.9-4.4,2.5-5.9l81.2-77c1.5-1.4,3.4-2.2,5.5-2.2c0.1,0,0.1,0,0.2,0c2.1,0.1,4.1,0.9,5.6,2.5
			c1.5,1.6,2.3,3.6,2.2,5.7C-550.2,518.8-551.1,520.8-552.7,522.2z"/>
	</g>
</g>
<g>
	<g>
		<path class="st0" d="M-238.1,575.9l-81.2-77c-9.6-9.1-24.9-8.7-34,0.9c-9.1,9.6-8.7,24.9,0.9,34l62.3,59l-61.8,55.3
			c-9.9,8.8-10.7,24.1-1.9,34c4.6,5.1,11.1,8,17.9,8c0,0,0,0,0,0c5.9,0,11.6-2.2,16-6.1l81.2-72.7c5-4.5,7.9-10.9,8-17.6
			C-230.5,587-233.2,580.5-238.1,575.9z M-249.3,599.3l-81.2,72.7c-1.5,1.3-3.4,2-5.3,2h0c-2.3,0-4.4-0.9-6-2.7
			c-2.9-3.3-2.7-8.4,0.6-11.3l68.3-61.1c1.7-1.5,2.6-3.6,2.7-5.9c0-2.2-0.9-4.4-2.5-5.9l-68.6-65c-3.2-3-3.3-8.1-0.3-11.3
			c1.6-1.7,3.7-2.5,5.8-2.5c2,0,4,0.7,5.5,2.2l81.2,77c1.6,1.5,2.5,3.7,2.5,5.9v0h0C-246.6,595.7-247.6,597.9-249.3,599.3z"/>
	</g>
</g>
<g>
	<g>
		<path class="st0" d="M-385.3,518.7c-1.7-6.2-5.7-11.4-11.2-14.6c0,0,0,0,0,0c-11.5-6.6-26.2-2.6-32.8,8.8l-81.2,141.1
			c-6.6,11.5-2.6,26.2,8.8,32.8c3.6,2.1,7.8,3.2,12,3.2c8.6,0,16.6-4.6,20.9-12.1l81.2-141.1C-384.5,531.4-383.6,524.9-385.3,518.7z
			 M-401.6,529l-81.2,141.1c-1.4,2.5-4.1,4-7,4c-1.4,0-2.7-0.4-4-1.1c-3.8-2.2-5.2-7.1-2.9-10.9l81.2-141.1c1.5-2.6,4.2-4,7-4
			c1.4,0,2.7,0.3,4,1.1c1.9,1.1,3.2,2.8,3.7,4.9C-400.2,524.9-400.5,527.1-401.6,529z"/>
	</g>
</g>
</svg>
