<?xml version="1.0" encoding="utf-8"?>
<!-- Generator: Adobe Illustrator 19.0.0, SVG Export Plug-In . SVG Version: 6.00 Build 0)  -->
<svg version="1.1" id="Capa_1" xmlns="http://www.w3.org/2000/svg" xmlns:xlink="http://www.w3.org/1999/xlink" x="0px" y="0px"
	 viewBox="-812 393.2 294.8 294.8" style="enable-background:new -812 393.2 294.8 294.8;" xml:space="preserve">
<style type="text/css">
	.st0{fill:#FFFFFF;}
</style>
<g>
	<path class="st0" d="M-523.2,393.2c-3.3,0-6,2.7-6,6v46h-253.4c-3.3,0-6,2.7-6,6c0,3.3,2.7,6,6,6h253.4V676h-66.3V489.6
		c0-3.3-2.7-6-6-6s-6,2.7-6,6V676H-800V405.2h239.4c3.3,0,6-2.7,6-6s-2.7-6-6-6H-806c-3.3,0-6,2.7-6,6V682c0,3.3,2.7,6,6,6h282.8
		c3.3,0,6-2.7,6-6V399.2C-517.2,395.8-519.8,393.2-523.2,393.2z"/>
	<path class="st0" d="M-584.5,496.1h44c3.3,0,6-2.7,6-6s-2.7-6-6-6h-44c-3.3,0-6,2.7-6,6S-587.8,496.1-584.5,496.1z"/>
	<path class="st0" d="M-584.5,557.1h44c3.3,0,6-2.7,6-6s-2.7-6-6-6h-44c-3.3,0-6,2.7-6,6S-587.8,557.1-584.5,557.1z"/>
	<path class="st0" d="M-584.5,526.6h44c3.3,0,6-2.7,6-6s-2.7-6-6-6h-44c-3.3,0-6,2.7-6,6S-587.8,526.6-584.5,526.6z"/>
	<path class="st0" d="M-584.5,587.6h44c3.3,0,6-2.7,6-6s-2.7-6-6-6h-44c-3.3,0-6,2.7-6,6S-587.8,587.6-584.5,587.6z"/>
	<path class="st0" d="M-584.5,648.6h44c3.3,0,6-2.7,6-6s-2.7-6-6-6h-44c-3.3,0-6,2.7-6,6S-587.8,648.6-584.5,648.6z"/>
	<path class="st0" d="M-584.5,618.1h44c3.3,0,6-2.7,6-6s-2.7-6-6-6h-44c-3.3,0-6,2.7-6,6S-587.8,618.1-584.5,618.1z"/>
	<path class="st0" d="M-784.3,420.9c-1.1,1.1-1.8,2.7-1.8,4.3c0,1.6,0.6,3.1,1.8,4.2c1.1,1.1,2.7,1.8,4.3,1.8c1.6,0,3.1-0.7,4.2-1.8
		c1.1-1.1,1.8-2.7,1.8-4.2c0-1.6-0.6-3.1-1.8-4.3c-1.1-1.1-2.7-1.8-4.2-1.8C-781.7,419.2-783.2,419.8-784.3,420.9z"/>
	<path class="st0" d="M-764.3,420.9c-1.1,1.1-1.8,2.7-1.8,4.2c0,1.6,0.6,3.1,1.8,4.3c1.1,1.1,2.7,1.8,4.2,1.8c1.6,0,3.1-0.6,4.2-1.8
		c1.1-1.1,1.8-2.7,1.8-4.3c0-1.6-0.6-3.1-1.8-4.2c-1.1-1.1-2.7-1.8-4.2-1.8C-761.7,419.1-763.2,419.8-764.3,420.9z"/>
	<path class="st0" d="M-744.3,420.9c-1.1,1.1-1.8,2.7-1.8,4.3c0,1.6,0.6,3.1,1.8,4.2c1.1,1.1,2.7,1.8,4.3,1.8c1.6,0,3.1-0.6,4.2-1.8
		c1.1-1.1,1.8-2.7,1.8-4.2c0-1.6-0.6-3.1-1.8-4.3c-1.1-1.1-2.7-1.8-4.2-1.8C-741.7,419.1-743.2,419.8-744.3,420.9z"/>
</g>
</svg>
