<?xml version="1.0" encoding="utf-8"?>
<!-- Generator: Adobe Illustrator 19.0.0, SVG Export Plug-In . SVG Version: 6.00 Build 0)  -->
<svg version="1.1" id="Capa_1" xmlns="http://www.w3.org/2000/svg" xmlns:xlink="http://www.w3.org/1999/xlink" x="0px" y="0px"
	 viewBox="-824 406.9 269.1 269.1" style="enable-background:new -824 406.9 269.1 269.1;" xml:space="preserve">
<style type="text/css">
	.st0{fill:#FFFFFF;}
</style>
<g>
	<path class="st0" d="M-701,427.9h-25.2c-2.5,0-4.2,1.7-4.2,4.2c0,2.5,1.7,4.2,4.2,4.2h25.2c2.5,0,4.2-1.7,4.2-4.2
		C-696.8,429.6-698.5,427.9-701,427.9z"/>
	<path class="st0" d="M-744.2,429.2c-0.8,0.8-1.3,1.7-1.3,2.9c0,1.3,0.4,2.1,1.3,2.9c0.8,0.8,2.1,1.3,2.9,1.3c1.3,0,2.1-0.4,2.9-1.3
		c0.8-0.8,1.3-1.7,1.3-2.9c0-1.3-0.4-2.1-1.3-2.9C-739.6,427.5-742.6,427.5-744.2,429.2z"/>
	<path class="st0" d="M-709.4,536.8c0.8,0.8,2.1,1.3,2.9,1.3s2.1-0.4,2.9-1.3c1.7-1.7,1.7-4.2,0-5.9l-16.8-16.8
		c-1.7-1.7-4.2-1.7-5.9,0s-1.7,4.2,0,5.9L-709.4,536.8z"/>
	<path class="st0" d="M-756.4,517.5c-1.7,1.7-1.7,4.2,0,5.9l60.1,60.1c0.8,0.8,2.1,1.3,2.9,1.3c0.8,0,2.1-0.4,2.9-1.3
		c1.7-1.7,1.7-4.2,0-5.9l-60.1-60.1C-752.2,515.8-754.7,515.8-756.4,517.5z"/>
	<path class="st0" d="M-711.5,663.4c7.1,0,12.6-5.5,12.6-12.6c0-7.1-5.5-12.6-12.6-12.6s-12.6,5.5-12.6,12.6
		C-724.1,657.9-718.6,663.4-711.5,663.4z M-711.5,646.6c2.5,0,4.2,1.7,4.2,4.2s-1.7,4.2-4.2,4.2c-2.5,0-4.2-1.7-4.2-4.2
		C-715.7,648.7-714,646.6-711.5,646.6z"/>
	<path class="st0" d="M-590.9,482.6h-24.8l0.8-58.9c0-9.3-7.6-16.8-16.8-16.8h-159.6c-9.2,0-16.8,7.6-16.8,16.8v235.5
		c0,9.3,7.6,16.8,16.8,16.8H-664h30.2h42.8c11.8,0,20.2-9.3,20.2-22.3V504.9C-570.8,491.8-579.2,482.6-590.9,482.6z M-734.6,499.8
		l-42.4-42.5h109.6c2.5,0,4.2-1.7,4.2-4.2c0-2.5-1.7-4.2-4.2-4.2h-119.3h-0.4h-2.1c-2.5,0-4.2,1.7-4.2,4.2v176.6
		c0,2.5,1.7,4.2,4.2,4.2h100.8v19.8c0,5.5,2.1,10.1,5.9,13.9h-108.8c-4.6,0-8.4-3.8-8.4-8.4V423.7c0-4.6,3.8-8.4,8.4-8.4h159.6
		c4.6,0,8.4,3.8,8.4,8.4l-0.8,58.9h-9.7v-29.4c0-2.5-1.7-4.2-4.2-4.2h-8.4c-2.5,0-4.2,1.7-4.2,4.2c0,2.5,1.7,4.2,4.2,4.2h4.2v25.2
		h-21.4c-12.6,0-24.8,11.4-24.8,23.1v119.8H-785V461.1l44.5,44.6c0.8,0.8,2.1,1.3,2.9,1.3c0.8,0,2.1-0.4,2.9-1.3
		C-732.9,504-732.9,501.5-734.6,499.8z M-579.2,653.7c0,6.7-3.8,13.9-11.8,13.9h-42.8h-29.8c-7.1,0-16.4-6.3-16.4-13.9v-148
		c0-7.1,8-14.7,16.4-14.7h72.7c8,0,11.8,7.1,11.8,13.9V653.7L-579.2,653.7z"/>
	<path class="st0" d="M-627.5,648.7c-4.6,0-8.4,3.8-8.4,8.4s3.8,8.4,8.4,8.4s8.4-3.8,8.4-8.4S-622.9,648.7-627.5,648.7z
		 M-627.5,661.3c-2.1,0-4.2-1.7-4.2-4.2c0-2.1,1.7-4.2,4.2-4.2c2.1,0,4.2,1.7,4.2,4.2C-623.3,659.6-625.4,661.3-627.5,661.3z"/>
	<path class="st0" d="M-638,507.8h16.8c2.5,0,4.2-1.7,4.2-4.2s-1.7-4.2-4.2-4.2H-638c-2.5,0-4.2,1.7-4.2,4.2S-640.5,507.8-638,507.8
		z"/>
	<path class="st0" d="M-648.5,508.2c1.3,0,2.1-0.4,2.9-1.3c0.8-0.8,1.3-2.1,1.3-2.9s-0.4-2.1-1.3-2.9c-1.7-1.7-4.2-1.7-5.9,0
		c-0.8,0.8-1.3,2.1-1.3,2.9c0,1.3,0.4,2.1,1.3,2.9C-650.6,507.8-649.3,508.2-648.5,508.2z"/>
	<path class="st0" d="M-587.6,512h-84c-2.5,0-4.2,1.7-4.2,4.2v126.2c0,2.5,1.7,4.2,4.2,4.2h84c2.5,0,4.2-1.7,4.2-4.2V516.2
		C-583.4,513.7-585.1,512-587.6,512z M-591.8,638.2h-75.6V520.4h75.6V638.2z"/>
</g>
</svg>
